<svg width="89" height="40" viewBox="0 0 89 40" fill="none" xmlns="http://www.w3.org/2000/svg">
<path d="M77.0869 7.33917C77.0869 5.49954 78.5864 4 80.4261 4C82.2657 4 83.7652 5.49954 83.7652 7.33917C83.7652 9.1788 82.2657 10.6783 80.4261 10.6783C78.5864 10.6783 77.0869 9.1788 77.0869 7.33917Z" fill="#44318B"/>
<path d="M87.5451 25.3149C87.3132 25.1757 86.6948 24.9129 85.9064 25.4849C85.5663 25.7323 85.1953 26.1342 84.8243 26.6598C84.6233 26.9381 84.4378 27.2163 84.2677 27.4791C83.7267 28.2985 83.2011 29.0714 82.6136 29.628C81.717 30.4782 81.1759 30.4937 80.7895 30.4009C80.3411 30.3082 79.8774 30.0453 79.5373 28.7622C79.2435 27.6183 79.2126 26.7989 79.3827 24.9748C79.6455 22.2076 80.3566 19.765 80.8822 17.9718L80.9131 17.8481C81.2532 16.766 81.1296 15.7457 80.573 14.9882C80.0938 14.3234 79.3363 13.9525 78.517 13.937C78.5015 13.937 78.5015 13.937 78.4861 13.937C76.3218 13.9525 75.4561 16.3022 75.4097 16.4259C73.4155 22.254 71.0348 26.5825 68.9478 27.6956C68.5768 27.8965 67.9893 27.9893 67.6801 27.8811C67.6183 27.8656 67.5255 27.8347 67.4637 27.6337C67.4483 27.6337 67.4483 27.6183 67.4483 27.6028C67.3864 27.4018 67.4173 27.0617 67.4946 26.6289C67.3555 26.6753 67.2318 26.7062 67.0927 26.7216C66.4589 27.541 65.6859 28.283 64.6965 28.8705C64.6038 28.9323 64.4956 28.9787 64.4028 29.0096C64.8047 29.7207 65.4849 30.2463 66.3816 30.5246C67.7265 30.942 69.4425 30.7565 70.7565 30.0453C71.7304 29.5197 72.658 28.7313 73.5391 27.6492C73.6164 30.2309 74.2812 32.2715 75.4715 33.6473C76.4918 34.8222 77.8986 35.487 79.5373 35.5797H79.5527C79.6146 35.5797 79.6919 35.5797 79.7537 35.5797C81.4542 35.5797 83.0156 34.915 84.3914 33.5855C85.4117 32.6116 86.3393 31.2975 87.3287 29.427C88.4263 27.3864 88.4881 25.8869 87.5451 25.3149Z" fill="#44318B"/>
<path d="M31.4904 15.3127H37.3803L33.9175 35.3167H28.0275L28.2594 33.9563C26.7599 35.2394 24.7966 35.8733 22.3695 35.8733C19.3395 35.8733 17.1907 34.7602 15.8149 32.5496C14.439 30.308 14.0525 27.7418 14.5936 24.82C15.1037 22.0528 16.325 19.703 18.2883 17.7397C20.298 15.7455 22.7251 14.7407 25.6314 14.7407C28.1048 14.7407 29.9136 15.6218 31.1348 17.4151L31.4904 15.3127ZM29.759 25.3147C30.2691 22.3156 28.6614 20.4296 25.956 20.4296C23.2507 20.4296 21.0091 22.3156 20.499 25.3147C19.9888 28.3138 21.5656 30.1998 24.271 30.1998C26.9763 30.1998 29.2643 28.2828 29.7744 25.3611V25.3147H29.759Z" fill="#44318B"/>
<path d="M67.9117 17.0746C69.0712 18.5896 69.4731 20.5993 69.0248 23.0418L66.8605 35.3318H60.8624L62.903 23.5674C63.2585 21.5268 62.501 20.2901 60.615 20.2901C58.6517 20.2901 57.415 21.4495 56.8894 23.7684L54.8488 35.3318H48.8507L50.8913 23.5674C51.2468 21.5268 50.4893 20.2901 48.6033 20.2901C46.64 20.2901 45.4033 21.4031 44.8777 23.6911L42.8371 35.3318H36.8389L40.3636 15.3277H46.3617L46.0371 17.1364C47.4439 15.5751 49.2835 14.7712 51.6024 14.7712C53.9676 14.7712 55.6063 15.6987 56.4874 17.492C58.1261 15.6833 60.2131 14.7712 62.6556 14.7712C64.99 14.7557 66.7523 15.5132 67.9117 17.0746Z" fill="#44318B"/>
<path d="M9.19817 21.079H13.3257L14.3615 15.3128H10.203L11.1924 9.79395C10.2803 10.2268 9.21362 10.5978 8.05419 10.9225C6.92568 11.2316 5.84354 11.4635 4.86962 11.5717L4.20488 15.3128H1.03576L0 21.079H3.20003L1.96331 28.1593C0.958464 33.8019 3.67927 36.1207 10.8523 35.3169L11.8108 29.8753C8.81169 30.0762 7.65225 29.798 7.96144 28.1593L9.19817 21.079Z" fill="#44318B"/>
</svg>
